<svg width="578" height="562" viewBox="0 0 478 462" fill="none" xmlns="http://www.w3.org/2000/svg">
<g clip-path="url(#clip0_4_64)">
<path d="M218.924 99.33L0 243.474L148.658 315.084L335.078 138.138L218.924 99.33ZM344.638 140.91L233.742 250.404L350.852 341.418L478.478 186.186L344.638 140.91ZM227.05 257.334L160.13 320.166L308.788 391.776L344.638 351.12L227.05 257.334Z" fill="black"/>
<path d="M134.867 229.822C134.744 229.612 134.587 229.424 134.395 229.26C134.215 229.108 134.02 228.978 133.812 228.871L133.282 228.604C133.124 228.525 132.99 228.454 132.879 228.392C132.798 228.347 132.734 228.301 132.69 228.259C132.66 228.23 132.64 228.2 132.632 228.179C132.623 228.155 132.612 228.11 132.612 228.038C132.612 227.893 132.612 227.714 133.143 227.714C133.326 227.714 133.501 227.737 133.679 227.786C133.861 227.833 134.02 227.895 134.157 227.968L134.616 228.212L134.935 226.842L134.662 226.698C134.46 226.592 134.224 226.505 133.957 226.439C133.429 226.313 132.843 226.311 132.371 226.444C132.121 226.515 131.902 226.624 131.718 226.768C131.526 226.919 131.374 227.11 131.269 227.335C131.163 227.558 131.11 227.812 131.11 228.091C131.11 228.35 131.163 228.583 131.264 228.782C131.357 228.966 131.483 229.136 131.644 229.288C131.791 229.426 131.961 229.549 132.15 229.653C132.319 229.747 132.497 229.837 132.71 229.938L133.11 230.13C133.217 230.183 133.311 230.241 133.388 230.306C133.452 230.359 133.503 230.417 133.536 230.474C133.561 230.52 133.573 230.585 133.573 230.663C133.573 230.821 133.52 230.89 133.437 230.947C133.196 231.114 132.707 231.124 132.265 231.013C132.062 230.963 131.876 230.9 131.71 230.823L131.27 230.62L130.935 231.969L131.231 232.11C131.473 232.226 131.745 232.315 132.039 232.372C132.323 232.428 132.605 232.457 132.874 232.457C133.164 232.457 133.439 232.418 133.696 232.339C133.959 232.259 134.193 232.141 134.389 231.991C134.595 231.835 134.762 231.643 134.887 231.414C135.012 231.179 135.076 230.917 135.076 230.633C135.076 230.33 135.006 230.056 134.867 229.822Z" fill="white"/>
<path d="M138.872 226.435H137.634L135.276 232.364H136.867L137.33 231.124H139.17L139.639 232.364H141.229L138.872 226.435ZM137.84 229.755L138.253 228.638L138.665 229.755H137.84Z" fill="white"/>
<path d="M143.136 230.987V226.435H141.626V232.364H145.276V230.987H143.136Z" fill="white"/>
<path d="M147.293 230.987V230.03H149.349V228.653H147.293V227.813H149.442V226.435H145.783V232.364H149.465V230.987H147.293Z" fill="white"/>
<path d="M153 219V217.4H125V215H123.4V217.4H121V219H123.4V245.4H121.8C121.358 245.4 121 245.758 121 246.2C121 246.642 121.358 247 121.8 247H126.6C127.042 247 127.4 246.642 127.4 246.2C127.4 245.758 127.042 245.4 126.6 245.4H125V219H130.599V221.4H129C128.116 221.4 127.4 222.116 127.4 223V235.8C127.4 236.684 128.116 237.4 129 237.4H151.4C152.284 237.4 153 236.684 153 235.8V223C153 222.116 152.284 221.4 151.4 221.4H149.8V219H153ZM132.199 219H148.2V221.4H132.199V219ZM151.4 223V235.8H129V223H151.4Z" fill="white"/>
<path d="M236.867 144.822C236.744 144.612 236.587 144.424 236.395 144.26C236.215 144.108 236.02 143.978 235.812 143.871L235.282 143.604C235.124 143.525 234.99 143.454 234.879 143.392C234.798 143.347 234.734 143.301 234.69 143.259C234.66 143.23 234.64 143.2 234.632 143.179C234.623 143.155 234.612 143.11 234.612 143.038C234.612 142.893 234.612 142.714 235.143 142.714C235.326 142.714 235.501 142.737 235.679 142.786C235.861 142.833 236.02 142.895 236.157 142.967L236.616 143.212L236.935 141.842L236.662 141.698C236.46 141.591 236.224 141.505 235.957 141.439C235.429 141.313 234.843 141.311 234.371 141.444C234.121 141.515 233.902 141.623 233.718 141.768C233.526 141.919 233.374 142.11 233.269 142.335C233.163 142.558 233.11 142.812 233.11 143.091C233.11 143.35 233.163 143.583 233.264 143.782C233.357 143.966 233.483 144.136 233.644 144.288C233.791 144.426 233.961 144.549 234.15 144.653C234.319 144.747 234.497 144.837 234.71 144.938L235.11 145.13C235.217 145.183 235.311 145.241 235.388 145.306C235.452 145.359 235.503 145.417 235.536 145.474C235.561 145.52 235.573 145.584 235.573 145.663C235.573 145.821 235.52 145.89 235.437 145.947C235.196 146.114 234.707 146.124 234.265 146.013C234.062 145.963 233.876 145.9 233.71 145.823L233.27 145.62L232.935 146.969L233.231 147.11C233.473 147.226 233.745 147.315 234.039 147.372C234.323 147.428 234.605 147.457 234.874 147.457C235.164 147.457 235.439 147.418 235.696 147.339C235.959 147.259 236.193 147.141 236.389 146.991C236.595 146.835 236.762 146.643 236.887 146.414C237.012 146.179 237.076 145.917 237.076 145.633C237.076 145.33 237.006 145.056 236.867 144.822Z" fill="white"/>
<path d="M240.872 141.435H239.634L237.276 147.364H238.867L239.33 146.124H241.17L241.639 147.364H243.229L240.872 141.435ZM239.84 144.755L240.253 143.638L240.665 144.755H239.84Z" fill="white"/>
<path d="M245.136 145.987V141.435H243.626V147.364H247.276V145.987H245.136Z" fill="white"/>
<path d="M249.293 145.987V145.03H251.349V143.653H249.293V142.813H251.442V141.435H247.783V147.364H251.465V145.987H249.293Z" fill="white"/>
<path d="M255 134V132.4H227V130H225.4V132.4H223V134H225.4V160.4H223.8C223.358 160.4 223 160.758 223 161.2C223 161.642 223.358 162 223.8 162H228.6C229.042 162 229.4 161.642 229.4 161.2C229.4 160.758 229.042 160.4 228.6 160.4H227V134H232.599V136.4H231C230.116 136.4 229.4 137.116 229.4 138V150.8C229.4 151.684 230.116 152.4 231 152.4H253.4C254.284 152.4 255 151.684 255 150.8V138C255 137.116 254.284 136.4 253.4 136.4H251.8V134H255ZM234.199 134H250.2V136.4H234.199V134ZM253.4 138V150.8H231V138H253.4Z" fill="white"/>
<path d="M351.867 224.822C351.744 224.612 351.587 224.424 351.395 224.26C351.215 224.108 351.02 223.978 350.812 223.871L350.282 223.604C350.124 223.525 349.99 223.454 349.879 223.392C349.798 223.347 349.734 223.301 349.69 223.259C349.66 223.23 349.64 223.2 349.632 223.179C349.623 223.155 349.612 223.11 349.612 223.038C349.612 222.893 349.612 222.714 350.143 222.714C350.326 222.714 350.501 222.737 350.679 222.786C350.861 222.833 351.02 222.895 351.157 222.968L351.616 223.212L351.935 221.842L351.662 221.698C351.46 221.592 351.224 221.505 350.957 221.439C350.429 221.313 349.843 221.311 349.371 221.444C349.121 221.515 348.902 221.624 348.718 221.768C348.526 221.919 348.374 222.11 348.269 222.335C348.163 222.558 348.11 222.812 348.11 223.091C348.11 223.35 348.163 223.583 348.264 223.782C348.357 223.966 348.483 224.136 348.644 224.288C348.791 224.426 348.961 224.549 349.15 224.653C349.319 224.747 349.497 224.837 349.71 224.938L350.11 225.13C350.217 225.183 350.311 225.241 350.388 225.306C350.452 225.359 350.503 225.417 350.536 225.474C350.561 225.52 350.573 225.585 350.573 225.663C350.573 225.821 350.52 225.89 350.437 225.947C350.196 226.114 349.707 226.124 349.265 226.013C349.062 225.963 348.876 225.9 348.71 225.823L348.27 225.62L347.935 226.969L348.231 227.11C348.473 227.226 348.745 227.315 349.039 227.372C349.323 227.428 349.605 227.457 349.874 227.457C350.164 227.457 350.439 227.418 350.696 227.339C350.959 227.259 351.193 227.141 351.389 226.991C351.595 226.835 351.762 226.643 351.887 226.414C352.012 226.179 352.076 225.917 352.076 225.633C352.076 225.33 352.006 225.056 351.867 224.822Z" fill="white"/>
<path d="M355.872 221.435H354.634L352.276 227.364H353.867L354.33 226.124H356.17L356.639 227.364H358.229L355.872 221.435ZM354.84 224.755L355.253 223.638L355.665 224.755H354.84Z" fill="white"/>
<path d="M360.136 225.987V221.435H358.626V227.364H362.276V225.987H360.136Z" fill="white"/>
<path d="M364.293 225.987V225.03H366.349V223.653H364.293V222.813H366.442V221.435H362.783V227.364H366.465V225.987H364.293Z" fill="white"/>
<path d="M370 214V212.4H342V210H340.4V212.4H338V214H340.4V240.4H338.8C338.358 240.4 338 240.758 338 241.2C338 241.642 338.358 242 338.8 242H343.6C344.042 242 344.4 241.642 344.4 241.2C344.4 240.758 344.042 240.4 343.6 240.4H342V214H347.599V216.4H346C345.116 216.4 344.4 217.116 344.4 218V230.8C344.4 231.684 345.116 232.4 346 232.4H368.4C369.284 232.4 370 231.684 370 230.8V218C370 217.116 369.284 216.4 368.4 216.4H366.8V214H370ZM349.199 214H365.2V216.4H349.199V214ZM368.4 218V230.8H346V218H368.4Z" fill="white"/>
</g>
<defs>
<clipPath id="clip0_4_64">
<rect width="478" height="462" fill="white"/>
</clipPath>
</defs>
</svg>
